<?xml version="1.0" standalone="no"?>
<!DOCTYPE svg PUBLIC "-//W3C//DTD SVG 20010904//EN"
 "http://www.w3.org/TR/2001/REC-SVG-20010904/DTD/svg10.dtd">
<svg version="1.0" xmlns="http://www.w3.org/2000/svg"
 width="512.000000pt" height="512.000000pt" viewBox="0 0 512.000000 512.000000"
 preserveAspectRatio="xMidYMid meet">
<metadata>
Created by potrace 1.14, written by Peter Selinger 2001-2017
</metadata>
<g transform="translate(0.000000,512.000000) scale(0.100000,-0.100000)"
fill="#000000" stroke="none">
<path d="M1167 4718 c-145 -18 -279 -68 -392 -145 -106 -73 -222 -199 -265
-288 -8 -16 -21 -38 -29 -47 -8 -10 -11 -18 -7 -18 3 0 -1 -11 -10 -25 -9 -14
-13 -25 -9 -25 4 0 3 -6 -2 -12 -9 -11 -23 -52 -29 -83 -1 -5 -3 -12 -4 -15
-3 -9 -10 -45 -16 -85 -10 -64 -10 -2775 0 -2830 44 -255 169 -455 369 -596
39 -27 76 -49 82 -49 7 0 18 -7 25 -15 6 -8 15 -14 18 -13 4 1 24 -6 44 -14
49 -22 150 -47 218 -55 30 -4 669 -7 1420 -7 1253 0 1372 1 1447 17 199 42
398 164 509 314 16 21 32 40 35 43 4 3 18 25 31 50 13 25 28 52 33 60 5 8 10
17 10 20 1 3 9 23 19 45 9 21 19 48 21 60 2 11 5 22 6 25 1 3 3 10 4 15 2 6 4
12 5 15 3 8 7 31 16 80 10 60 12 2737 2 2820 -10 82 -52 218 -89 291 -73 145
-231 307 -354 364 -22 11 -43 23 -46 28 -3 5 -10 9 -15 9 -5 0 -23 6 -40 13
-36 15 -64 24 -93 30 -12 3 -31 7 -43 10 -12 2 -40 8 -63 12 -54 9 -2735 10
-2808 1z"/>
</g>
</svg>
